<?xml version="1.0" encoding="utf-8"?>
<!-- Generator: Adobe Illustrator 24.0.1, SVG Export Plug-In . SVG Version: 6.00 Build 0)  -->
<svg version="1.0" id="Layer_1" xmlns="http://www.w3.org/2000/svg" xmlns:xlink="http://www.w3.org/1999/xlink" x="0px" y="0px"
	 viewBox="0 0 50 50" style="enable-background:new 0 0 50 50;" xml:space="preserve">
<g id="C3C3C3C_2_">
	<g>
		<g>
			<path style="fill:#000000;" d="M26.5,6.9c0-0.8-0.7-1.4-1.8-1.4c-1,0-1.8,0.7-1.8,1.4v25.2c-0.9-0.3-1.7-0.5-2.7-0.5l0,0l0,0
				c-1.2,0-2.4,0.2-3.4,0.8c-3.5,1.7-5.2,5.6-3.8,8.8c1,2.2,3.2,3.4,5.7,3.4c1.2,0,2.4-0.2,3.4-0.8c2.6-1.2,4.4-3.2,4.4-7.6V16
				c3-0.4,4.8,0.9,6.5,2.2c5,3.8,2.7,7.7,0.4,11.6c5.2-5.4,5.3-9.5,0.2-13.7c-3.1-2.5-6.2-4.9-7.2-8.2L26.5,6.9z"/>
		</g>
	</g>
</g>
</svg>
