<?xml version="1.0" encoding="utf-8"?>
<!-- Generator: Adobe Illustrator 24.0.1, SVG Export Plug-In . SVG Version: 6.00 Build 0)  -->
<svg version="1.0" id="Layer_1" xmlns="http://www.w3.org/2000/svg" xmlns:xlink="http://www.w3.org/1999/xlink" x="0px" y="0px"
	 viewBox="0 0 50 50" style="enable-background:new 0 0 50 50;" xml:space="preserve">
<g>
	<g>
		<path style="fill:#000000;" d="M39.5,36.8L28.1,25.4c0-4.9,0-9.6,0-9.6c3.1-0.4,5,0.8,6.8,2.2c5.3,3.9,2.8,7.9,0.4,11.9
			c5.5-5.6,5.5-9.8,0.2-14c-3.2-2.5-6.4-5-7.4-8.5l0-1c0-0.8-0.8-1.4-1.9-1.4c-1,0-1.9,0.6-1.9,1.4v15.3L13.2,10.5
			c-0.7-0.7-2-0.7-2.7,0c-0.7,0.7-0.7,2,0,2.7L22.3,25l2.1,2.1v5.2c-0.8-0.3-1.8-0.5-2.7-0.5c0,0,0,0,0,0c-1.2,0-2.4,0.3-3.6,0.8
			c-3.7,1.8-5.5,5.8-4,9c1,2.2,3.3,3.4,5.9,3.4c1.2,0,2.4-0.3,3.6-0.8c2.7-1.3,4.5-3.3,4.5-7.8c0,0,0-2.5,0-5.7l8.8,8.8
			c0.7,0.7,2,0.7,2.7,0C40.3,38.8,40.3,37.6,39.5,36.8z"/>
	</g>
</g>
</svg>
